<svg width="401" height="36" viewBox="0 0 401 36" fill="none" xmlns="http://www.w3.org/2000/svg">
<path d="M0.186133 0.849999C0.686133 0.749998 1.2528 0.683331 1.88613 0.649998C2.53613 0.616665 3.0778 0.599999 3.51113 0.599999C3.99447 0.599999 4.53613 0.616665 5.13613 0.649998C5.7528 0.683331 6.33613 0.749998 6.88613 0.849999V35C6.33613 35.1 5.7528 35.1667 5.13613 35.2C4.53613 35.2333 3.99447 35.25 3.51113 35.25C3.0778 35.25 2.53613 35.2333 1.88613 35.2C1.2528 35.1667 0.686133 35.1 0.186133 35V0.849999ZM15.2955 0.949997C15.8288 0.833331 16.5038 0.749998 17.3205 0.699998C18.1538 0.633332 18.8038 0.599999 19.2705 0.599999C19.7372 0.599999 20.3372 0.616665 21.0705 0.649998C21.8038 0.683331 22.5205 0.749998 23.2205 0.849999L21.4955 8.55L21.0205 8.675C21.1205 9.975 21.2038 11.4333 21.2705 13.05C21.3538 14.6667 21.4205 16.2917 21.4705 17.925C21.5205 19.5417 21.5455 21.0083 21.5455 22.325V35C20.9955 35.1 20.4538 35.1667 19.9205 35.2C19.3872 35.2333 18.9122 35.25 18.4955 35.25C18.0788 35.25 17.5705 35.2333 16.9705 35.2C16.3872 35.1667 15.8288 35.1 15.2955 35V0.949997ZM24.1955 15.625C23.5955 14.3583 23.0455 13.125 22.5455 11.925C22.0455 10.725 21.5955 9.61667 21.1955 8.6L18.0705 4.95L23.2205 0.849999L32.2955 20.2C32.9288 21.5833 33.5205 22.925 34.0705 24.225C34.6205 25.5083 35.1038 26.6417 35.5205 27.625L38.8955 31.225L33.4205 35L24.1955 15.625ZM41.3955 0.875V34.9C40.8622 35.0167 40.1788 35.1 39.3455 35.15C38.5288 35.2167 37.8622 35.25 37.3455 35.25C36.8455 35.25 36.2455 35.2333 35.5455 35.2C34.8455 35.1667 34.1372 35.1 33.4205 35L35.1955 27.675L35.7205 27.55C35.6038 26.1 35.5038 24.5333 35.4205 22.85C35.3372 21.1667 35.2788 19.5333 35.2455 17.95C35.2122 16.3667 35.1955 15 35.1955 13.85V4.675C35.1955 3.19167 35.4788 2.14167 36.0455 1.525C36.6288 0.891664 37.5788 0.574998 38.8955 0.574998H41.0705L41.3955 0.875ZM46.2193 6.45C46.1193 5.95 46.0527 5.45833 46.0193 4.975C45.986 4.49167 45.9693 4.05833 45.9693 3.675C45.9693 3.275 45.986 2.83333 46.0193 2.35C46.0527 1.85 46.1193 1.35 46.2193 0.849999H70.1193C70.236 1.21666 70.3193 1.63333 70.3693 2.1C70.436 2.56666 70.4693 3.01666 70.4693 3.45C70.4693 4.55 70.1777 5.325 69.5943 5.775C69.011 6.225 68.1027 6.45 66.8693 6.45H64.5193C64.186 6.45 63.6943 6.44167 63.0443 6.425C62.3943 6.40833 61.886 6.4 61.5193 6.4H54.7943C54.4443 6.4 53.936 6.40833 53.2693 6.425C52.6193 6.44167 52.1193 6.45 51.7693 6.45H46.2193ZM54.7943 10.1C54.7943 9.41667 54.7943 8.80833 54.7943 8.275C54.811 7.725 54.8193 7.1 54.8193 6.4V3.65H61.4693V6.4C61.4693 7.1 61.4777 7.725 61.4943 8.275C61.511 8.80833 61.5193 9.41667 61.5193 10.1V35C60.9527 35.1 60.3693 35.1667 59.7693 35.2C59.1693 35.2333 58.636 35.25 58.1693 35.25C57.6693 35.25 57.1193 35.2333 56.5193 35.2C55.9193 35.1667 55.3443 35.1 54.7943 35V10.1ZM74.7432 1.175L75.0682 0.849999H81.3182V6.35C81.3182 7.05 81.3265 7.65 81.3432 8.15C81.3598 8.65 81.3682 9.24167 81.3682 9.925V26.45C81.3682 27 81.3598 27.5083 81.3432 27.975C81.3265 28.425 81.3182 28.9417 81.3182 29.525V35.1H78.5932C77.3932 35.1 76.4515 34.7417 75.7682 34.025C75.0848 33.3083 74.7432 32.3333 74.7432 31.1V1.175ZM93.0932 15.05C93.2265 15.4667 93.3182 15.9417 93.3682 16.475C93.4348 16.9917 93.4682 17.4333 93.4682 17.8C93.4682 18.1833 93.4348 18.6333 93.3682 19.15C93.3182 19.65 93.2265 20.1167 93.0932 20.55H84.6182C84.2182 20.55 83.6765 20.55 82.9932 20.55C82.3098 20.5333 81.6098 20.525 80.8932 20.525C80.1765 20.5083 79.5598 20.4917 79.0432 20.475V15.125C79.5598 15.1083 80.1765 15.1 80.8932 15.1C81.6098 15.0833 82.3098 15.075 82.9932 15.075C83.6765 15.0583 84.2182 15.05 84.6182 15.05H93.0932ZM95.9432 0.849999C96.0432 1.35 96.1015 1.825 96.1182 2.275C96.1348 2.70833 96.1432 3.11666 96.1432 3.5C96.1432 3.88333 96.1015 4.35 96.0182 4.9C95.9348 5.45 95.8015 5.98333 95.6182 6.5H84.6182C84.2182 6.5 83.6765 6.5 82.9932 6.5C82.3098 6.48333 81.6098 6.46667 80.8932 6.45C80.1765 6.43333 79.5598 6.41667 79.0432 6.4V0.849999H95.9432ZM97.0432 29.45C97.0432 31.3667 96.7432 32.7917 96.1432 33.725C95.5598 34.6417 94.3932 35.1 92.6432 35.1H79.0432V29.675C79.9932 29.625 80.9098 29.575 81.7932 29.525C82.6932 29.475 83.7015 29.45 84.8182 29.45H97.0432ZM100.735 1.9C101.402 1.43333 102.127 1.075 102.91 0.824997C103.693 0.558332 104.427 0.425 105.11 0.425C106.027 0.425 106.802 0.616666 107.435 1C108.085 1.36667 108.727 2.05 109.36 3.05L128.535 33.95C127.868 34.4167 127.143 34.775 126.36 35.025C125.593 35.2917 124.86 35.425 124.16 35.425C123.243 35.425 122.452 35.2333 121.785 34.85C121.135 34.4667 120.493 33.7667 119.86 32.75L100.735 1.9ZM121.035 0.849999C121.368 0.766665 121.777 0.699999 122.26 0.649998C122.743 0.599998 123.26 0.574998 123.81 0.574998C124.477 0.574998 125.127 0.633331 125.76 0.749997C126.393 0.866665 126.918 0.999999 127.335 1.15L127.51 1.525L117.01 18.7L114.285 21.725L106.335 35C106.002 35.0833 105.585 35.15 105.085 35.2C104.585 35.25 104.052 35.275 103.485 35.275C102.835 35.275 102.193 35.2167 101.56 35.1C100.927 34.9833 100.377 34.8417 99.91 34.675L99.735 34.275L111.36 15.475L114.085 12.45L121.035 0.849999ZM130.246 24.275C130.146 23.8417 130.071 23.375 130.021 22.875C129.988 22.3583 129.971 21.9333 129.971 21.6C129.971 21.25 129.988 20.825 130.021 20.325C130.071 19.8083 130.146 19.3333 130.246 18.9H143.521C143.638 19.3333 143.713 19.8083 143.746 20.325C143.779 20.825 143.796 21.25 143.796 21.6C143.796 21.9333 143.779 22.3583 143.746 22.875C143.713 23.375 143.638 23.8417 143.521 24.275H130.246ZM151.81 0.875C152.527 0.758332 153.318 0.683331 154.185 0.649998C155.052 0.599998 155.768 0.574998 156.335 0.574998C156.918 0.574998 157.593 0.599998 158.36 0.649998C159.127 0.683331 159.868 0.758332 160.585 0.875L164.41 14.75C164.51 15.1 164.643 15.6417 164.81 16.375C164.993 17.1083 165.185 17.9167 165.385 18.8C165.585 19.6833 165.768 20.5333 165.935 21.35C166.118 22.1667 166.243 22.8167 166.31 23.3H166.635C166.718 22.8167 166.843 22.1667 167.01 21.35C167.193 20.5333 167.385 19.6833 167.585 18.8C167.785 17.9167 167.977 17.1083 168.16 16.375C168.343 15.6417 168.477 15.1 168.56 14.75L172.385 0.875C173.135 0.758332 173.885 0.683331 174.635 0.649998C175.385 0.599998 176.052 0.574998 176.635 0.574998C177.218 0.574998 177.935 0.599998 178.785 0.649998C179.635 0.683331 180.427 0.758332 181.16 0.875L183.81 34.925C183.327 35.0417 182.768 35.125 182.135 35.175C181.518 35.2417 180.943 35.275 180.41 35.275C179.893 35.275 179.393 35.2583 178.91 35.225C178.427 35.1917 177.935 35.1333 177.435 35.05L176.485 19.025C176.435 17.975 176.377 16.8083 176.31 15.525C176.26 14.225 176.21 12.9333 176.16 11.65C176.127 10.3667 176.102 9.20833 176.085 8.175H175.785L169.91 29.875C169.41 29.9583 168.827 30.025 168.16 30.075C167.51 30.1083 166.943 30.125 166.46 30.125C166.01 30.125 165.452 30.1083 164.785 30.075C164.118 30.025 163.535 29.9583 163.035 29.875L157.185 8.175H156.885C156.868 9.20833 156.835 10.3667 156.785 11.65C156.752 12.9333 156.71 14.225 156.66 15.525C156.61 16.8083 156.552 17.975 156.485 19.025L155.51 35.05C155.027 35.1333 154.535 35.1917 154.035 35.225C153.535 35.2583 153.035 35.275 152.535 35.275C152.002 35.275 151.418 35.2417 150.785 35.175C150.168 35.125 149.627 35.0417 149.16 34.925L151.81 0.875ZM198.899 0.849999C199.416 0.766665 200.049 0.708332 200.799 0.674999C201.566 0.624999 202.224 0.599999 202.774 0.599999C203.308 0.599999 203.949 0.624999 204.699 0.674999C205.466 0.708332 206.099 0.774999 206.599 0.875L217.574 34.575C217.108 34.8417 216.516 35.0417 215.799 35.175C215.083 35.325 214.391 35.4 213.724 35.4C212.658 35.4 211.824 35.1583 211.224 34.675C210.641 34.175 210.141 33.2167 209.724 31.8L205.199 16.85C204.783 15.4167 204.324 13.8167 203.824 12.05C203.341 10.2833 202.908 8.65833 202.524 7.175H202.224C202.058 8.00833 201.841 8.93333 201.574 9.95C201.324 10.95 201.058 11.95 200.774 12.95C200.508 13.9333 200.266 14.8083 200.049 15.575L194.074 35.05C193.658 35.15 193.208 35.2167 192.724 35.25C192.241 35.2833 191.733 35.3 191.199 35.3C190.666 35.3 190.091 35.2583 189.474 35.175C188.858 35.0917 188.349 34.9833 187.949 34.85L187.724 34.5L198.899 0.849999ZM198.874 27.325C198.674 27.325 198.383 27.325 197.999 27.325C197.616 27.3083 197.224 27.3 196.824 27.3C196.441 27.2833 196.149 27.275 195.949 27.275H192.574L194.624 21.975H197.599C197.799 21.975 198.074 21.975 198.424 21.975C198.791 21.9583 199.149 21.95 199.499 21.95C199.866 21.9333 200.141 21.925 200.324 21.925H204.624C204.841 21.925 205.124 21.9333 205.474 21.95C205.824 21.95 206.183 21.9583 206.549 21.975C206.916 21.975 207.199 21.975 207.399 21.975H210.474L212.199 27.275H208.824C208.624 27.275 208.324 27.2833 207.924 27.3C207.541 27.3 207.149 27.3083 206.749 27.325C206.366 27.325 206.074 27.325 205.874 27.325H198.874ZM245.973 11.175C245.973 12.7417 245.673 14.1417 245.073 15.375C244.49 16.6083 243.723 17.6417 242.773 18.475C241.823 19.3083 240.815 19.9167 239.748 20.3C240.632 20.6167 241.373 21.175 241.973 21.975C242.59 22.7583 243.082 23.675 243.448 24.725L245.298 29.725C245.615 30.6083 245.957 31.3417 246.323 31.925C246.707 32.5083 247.148 33 247.648 33.4C247.215 33.9833 246.573 34.4667 245.723 34.85C244.89 35.2167 244.032 35.4 243.148 35.4C241.932 35.4 241.04 35.0667 240.473 34.4C239.907 33.7333 239.39 32.7417 238.923 31.425L236.798 25.475C236.448 24.475 235.948 23.6333 235.298 22.95C234.648 22.25 233.607 21.9 232.173 21.9H226.398V16.8C227.082 16.7667 227.898 16.7333 228.848 16.7C229.815 16.65 230.748 16.6167 231.648 16.6C232.548 16.5833 233.24 16.575 233.723 16.575C235.173 16.575 236.282 16.3167 237.048 15.8C237.815 15.2667 238.348 14.5917 238.648 13.775C238.948 12.9417 239.098 12.075 239.098 11.175C239.098 10.225 238.948 9.34167 238.648 8.525C238.348 7.70833 237.815 7.04167 237.048 6.525C236.282 6.00833 235.173 5.75 233.723 5.75C233.123 5.75 232.407 5.75 231.573 5.75C230.74 5.73333 229.923 5.71667 229.123 5.7V35C228.59 35.1 228.015 35.1667 227.398 35.2C226.798 35.2333 226.257 35.25 225.773 35.25C225.357 35.25 224.832 35.2333 224.198 35.2C223.565 35.1667 222.99 35.1 222.473 35V1.125L222.823 0.774998C224.823 0.741665 226.765 0.708332 228.648 0.674999C230.548 0.624999 232.398 0.599999 234.198 0.599999C236.515 0.599999 238.557 0.983332 240.323 1.75C242.09 2.51667 243.473 3.68333 244.473 5.25C245.473 6.81666 245.973 8.79166 245.973 11.175ZM252.893 0.849999C253.41 0.749998 253.985 0.683331 254.618 0.649998C255.268 0.616665 255.81 0.599999 256.243 0.599999C256.71 0.599999 257.251 0.616665 257.868 0.649998C258.501 0.683331 259.085 0.749998 259.618 0.849999V35C259.085 35.1 258.501 35.1667 257.868 35.2C257.251 35.2333 256.71 35.25 256.243 35.25C255.81 35.25 255.268 35.2333 254.618 35.2C253.985 35.1667 253.41 35.1 252.893 35V0.849999ZM278.618 33.3C278.185 33.9667 277.543 34.4833 276.693 34.85C275.86 35.2 275.01 35.375 274.143 35.375C272.876 35.375 271.968 35.05 271.418 34.4C270.868 33.75 270.376 32.7667 269.943 31.45L267.668 24.9C267.068 23.1667 266.368 21.95 265.568 21.25C264.768 20.5333 263.701 20.175 262.368 20.175C261.735 20.175 260.893 20.2083 259.843 20.275C258.793 20.325 257.576 20.4 256.193 20.5V16.275H265.468C267.268 16.275 268.693 16.5333 269.743 17.05C270.81 17.5667 271.651 18.2833 272.268 19.2C272.885 20.1167 273.401 21.2 273.818 22.45L276.193 29.125C276.493 29.9583 276.76 30.6333 276.993 31.15C277.226 31.65 277.468 32.0583 277.718 32.375C277.985 32.6917 278.285 33 278.618 33.3ZM269.243 3.1C269.693 2.26666 270.16 1.65 270.643 1.25C271.126 0.833331 271.885 0.624997 272.918 0.624997C273.485 0.624997 274.118 0.641664 274.818 0.674999C275.535 0.708332 276.218 0.758332 276.868 0.824997L277.268 1.325L270.493 13.45C269.643 15 268.568 16.225 267.268 17.125C265.968 18.0083 264.268 18.45 262.168 18.45H256.193V14.65C257.06 14.6167 257.968 14.5917 258.918 14.575C259.868 14.5583 260.768 14.5417 261.618 14.525C262.185 14.525 262.593 14.4167 262.843 14.2C263.093 13.9667 263.385 13.5583 263.718 12.975L269.243 3.1ZM283.337 1.175L283.662 0.849999H289.912V6.35C289.912 7.05 289.92 7.65 289.937 8.15C289.954 8.65 289.962 9.24167 289.962 9.925V26.45C289.962 27 289.954 27.5083 289.937 27.975C289.92 28.425 289.912 28.9417 289.912 29.525V35.1H287.187C285.987 35.1 285.045 34.7417 284.362 34.025C283.679 33.3083 283.337 32.3333 283.337 31.1V1.175ZM301.687 15.05C301.82 15.4667 301.912 15.9417 301.962 16.475C302.029 16.9917 302.062 17.4333 302.062 17.8C302.062 18.1833 302.029 18.6333 301.962 19.15C301.912 19.65 301.82 20.1167 301.687 20.55H293.212C292.812 20.55 292.27 20.55 291.587 20.55C290.904 20.5333 290.204 20.525 289.487 20.525C288.77 20.5083 288.154 20.4917 287.637 20.475V15.125C288.154 15.1083 288.77 15.1 289.487 15.1C290.204 15.0833 290.904 15.075 291.587 15.075C292.27 15.0583 292.812 15.05 293.212 15.05H301.687ZM304.537 0.849999C304.637 1.35 304.695 1.825 304.712 2.275C304.729 2.70833 304.737 3.11666 304.737 3.5C304.737 3.88333 304.695 4.35 304.612 4.9C304.529 5.45 304.395 5.98333 304.212 6.5H293.212C292.812 6.5 292.27 6.5 291.587 6.5C290.904 6.48333 290.204 6.46667 289.487 6.45C288.77 6.43333 288.154 6.41667 287.637 6.4V0.849999H304.537ZM305.637 29.45C305.637 31.3667 305.337 32.7917 304.737 33.725C304.154 34.6417 302.987 35.1 301.237 35.1H287.637V29.675C288.587 29.625 289.504 29.575 290.387 29.525C291.287 29.475 292.295 29.45 293.412 29.45H305.637ZM308.329 6.45C308.229 5.95 308.162 5.45833 308.129 4.975C308.095 4.49167 308.079 4.05833 308.079 3.675C308.079 3.275 308.095 2.83333 308.129 2.35C308.162 1.85 308.229 1.35 308.329 0.849999H332.229C332.345 1.21666 332.429 1.63333 332.479 2.1C332.545 2.56666 332.579 3.01666 332.579 3.45C332.579 4.55 332.287 5.325 331.704 5.775C331.12 6.225 330.212 6.45 328.979 6.45H326.629C326.295 6.45 325.804 6.44167 325.154 6.425C324.504 6.40833 323.995 6.4 323.629 6.4H316.904C316.554 6.4 316.045 6.40833 315.379 6.425C314.729 6.44167 314.229 6.45 313.879 6.45H308.329ZM316.904 10.1C316.904 9.41667 316.904 8.80833 316.904 8.275C316.92 7.725 316.929 7.1 316.929 6.4V3.65H323.579V6.4C323.579 7.1 323.587 7.725 323.604 8.275C323.62 8.80833 323.629 9.41667 323.629 10.1V35C323.062 35.1 322.479 35.1667 321.879 35.2C321.279 35.2333 320.745 35.25 320.279 35.25C319.779 35.25 319.229 35.2333 318.629 35.2C318.029 35.1667 317.454 35.1 316.904 35V10.1ZM331.574 31.925C331.574 31.625 331.615 31.1833 331.699 30.6C331.782 30.0167 331.915 29.5333 332.099 29.15C332.515 28.9167 333.049 28.725 333.699 28.575C334.365 28.425 335.007 28.35 335.624 28.35C336.19 28.35 336.807 28.425 337.474 28.575C338.157 28.725 338.707 28.9167 339.124 29.15C339.307 29.5333 339.44 30.0167 339.524 30.6C339.607 31.1833 339.649 31.625 339.649 31.925C339.649 32.225 339.607 32.6667 339.524 33.25C339.44 33.8333 339.307 34.3083 339.124 34.675C338.724 34.9417 338.182 35.1417 337.499 35.275C336.815 35.4083 336.19 35.475 335.624 35.475C335.007 35.475 334.365 35.4083 333.699 35.275C333.049 35.1417 332.515 34.9417 332.099 34.675C331.915 34.3083 331.782 33.8333 331.699 33.25C331.615 32.6667 331.574 32.225 331.574 31.925ZM371.489 22.7C371.489 25.4833 370.964 27.8417 369.914 29.775C368.864 31.7083 367.364 33.1833 365.414 34.2C363.464 35.2 361.123 35.7 358.389 35.7C355.656 35.7 353.314 35.2 351.364 34.2C349.414 33.1833 347.914 31.7083 346.864 29.775C345.814 27.8417 345.289 25.4833 345.289 22.7V0.899998L345.639 0.574998H348.139C349.439 0.574998 350.406 0.916664 351.039 1.6C351.689 2.26667 352.014 3.34167 352.014 4.825V22.725C352.014 25.225 352.523 27.1167 353.539 28.4C354.573 29.6833 356.189 30.325 358.389 30.325C360.589 30.325 362.198 29.6833 363.214 28.4C364.248 27.1167 364.764 25.225 364.764 22.725V0.849999C365.314 0.749998 365.881 0.683331 366.464 0.649998C367.064 0.616665 367.589 0.599999 368.039 0.599999C368.489 0.599999 369.048 0.616665 369.714 0.649998C370.381 0.683331 370.973 0.749998 371.489 0.849999V22.7ZM389.324 11.225C389.824 10.4917 390.449 9.65833 391.199 8.725C391.949 7.79167 392.649 6.925 393.299 6.125L393.149 5.975C392.649 6.04167 392.049 6.10833 391.349 6.175C390.666 6.225 389.949 6.26667 389.199 6.3C388.449 6.31667 387.741 6.33333 387.074 6.35C386.408 6.36666 385.849 6.375 385.399 6.375H377.824C377.724 5.975 377.649 5.59167 377.599 5.225C377.566 4.85833 377.549 4.49167 377.549 4.125C377.549 3.54166 377.591 2.99166 377.674 2.475C377.758 1.95833 377.874 1.41667 378.024 0.849999H399.424C399.724 1.88333 399.933 2.66667 400.049 3.2C400.183 3.73333 400.266 4.13333 400.299 4.4C400.349 4.65 400.374 4.86666 400.374 5.05C400.374 5.43333 400.316 5.83333 400.199 6.25C400.083 6.66667 399.874 7.09167 399.574 7.525L387.749 24.5C387.249 25.2333 386.633 26.0667 385.899 27C385.183 27.9167 384.499 28.7583 383.849 29.525L383.999 29.675C385.066 29.575 386.233 29.5 387.499 29.45C388.766 29.3833 389.858 29.35 390.774 29.35H394.724C395.991 29.35 397.099 29.25 398.049 29.05C399.016 28.85 399.833 28.5917 400.499 28.275C400.616 28.7083 400.724 29.2 400.824 29.75C400.924 30.3 400.974 30.8417 400.974 31.375C400.974 32.5917 400.566 33.5 399.749 34.1C398.949 34.7 397.858 35 396.474 35H377.424C377.191 34.0167 377.016 33.2667 376.899 32.75C376.799 32.2167 376.733 31.825 376.699 31.575C376.666 31.3083 376.649 31.0833 376.649 30.9C376.649 30.4667 376.716 30.0167 376.849 29.55C376.983 29.0833 377.191 28.65 377.474 28.25L389.324 11.225Z" fill="#009398"/>
</svg>
