<svg xmlns="http://www.w3.org/2000/svg" viewBox="0 0 100 100" preserveAspectRatio="xMidYMid" width="200" height="200" xmlns:xlink="http://www.w3.org/1999/xlink" style="shape-rendering:auto;display:block;background-position-x:0%;background-position-y:0%;background-size:auto;background-origin:padding-box;background-clip:border-box;background:scroll rgb(255, 255, 255) none  repeat;width:200px;height:200px;;animation:none"><g><g transform="matrix(1,0,0,1,0,0)" style="transform:matrix(1, 0, 0, 1, 0, 0);;animation:none"><rect fill="#ffffff" height="11" width="3" ry="2.31" rx="1.5" y="27.5" x="48.5" opacity="0.076924" style="fill:rgb(255, 255, 255);opacity:0.076924;;animation:none"></rect></g>
<g transform="matrix(0.8854560197030528,0.4647231833808456,-0.4647231833808456,0.8854560197030528,28.963358183889646,-17.50896015419491)" style="transform:matrix(0.885456, 0.464723, -0.464723, 0.885456, 28.9634, -17.509);;animation:none"><rect fill="#ffffff" height="11" width="3" ry="2.31" rx="1.5" y="27.5" x="48.5" opacity="0.153847" style="fill:rgb(255, 255, 255);opacity:0.153847;;animation:none"></rect></g>
<g transform="matrix(0.5680647256567459,0.8229838804402708,-0.8229838804402708,0.5680647256567459,62.74595773917624,-19.552430304850844)" style="transform:matrix(0.568065, 0.822984, -0.822984, 0.568065, 62.746, -19.5524);;animation:none"><rect fill="#ffffff" height="11" width="3" ry="2.31" rx="1.5" y="27.5" x="48.5" opacity="0.23077" style="fill:rgb(255, 255, 255);opacity:0.23077;;animation:none"></rect></g>
<g transform="matrix(0.12053674126479165,0.9927088666901615,-0.9927088666901615,0.12053674126479165,93.60860627126848,-5.662280397747658)" style="transform:matrix(0.120537, 0.992709, -0.992709, 0.120537, 93.6086, -5.66228);;animation:none"><rect fill="#ffffff" height="11" width="3" ry="2.31" rx="1.5" y="27.5" x="48.5" opacity="0.307693" style="fill:rgb(255, 255, 255);opacity:0.307693;;animation:none"></rect></g>
<g transform="matrix(-0.35460493492905204,0.9350162245244532,-0.9350162245244532,-0.35460493492905204,114.48105797267526,20.97943552022994)" style="transform:matrix(-0.354605, 0.935016, -0.935016, -0.354605, 114.481, 20.9794);;animation:none"><rect fill="#ffffff" height="11" width="3" ry="2.31" rx="1.5" y="27.5" x="48.5" opacity="0.384616" style="fill:rgb(255, 255, 255);opacity:0.384616;;animation:none"></rect></g>
<g transform="matrix(-0.7485106802479257,0.6631227349102031,-0.6631227349102031,-0.7485106802479257,120.58167075790644,54.26939726688613)" style="transform:matrix(-0.748511, 0.663123, -0.663123, -0.748511, 120.582, 54.2694);;animation:none"><rect fill="#ffffff" height="11" width="3" ry="2.31" rx="1.5" y="27.5" x="48.5" opacity="0.461539" style="fill:rgb(255, 255, 255);opacity:0.461539;;animation:none"></rect></g>
<g transform="matrix(-0.9709417880105293,0.23931578363099307,-0.23931578363099307,-0.9709417880105293,110.51287858207613,86.58130021897682)" style="transform:matrix(-0.970942, 0.239316, -0.239316, -0.970942, 110.513, 86.5813);;animation:none"><rect fill="#ffffff" height="11" width="3" ry="2.31" rx="1.5" y="27.5" x="48.5" opacity="0.538462" style="fill:rgb(255, 255, 255);opacity:0.538462;;animation:none"></rect></g>
<g transform="matrix(-0.9709417880105294,-0.23931578363099282,0.23931578363099282,-0.9709417880105294,86.58130021897684,110.51287858207611)" style="transform:matrix(-0.970942, -0.239316, 0.239316, -0.970942, 86.5813, 110.513);;animation:none"><rect fill="#ffffff" height="11" width="3" ry="2.31" rx="1.5" y="27.5" x="48.5" opacity="0.615385" style="fill:rgb(255, 255, 255);opacity:0.615385;;animation:none"></rect></g>
<g transform="matrix(-0.7485106802479256,-0.6631227349102033,0.6631227349102033,-0.7485106802479256,54.26939726688611,120.58167075790644)" style="transform:matrix(-0.748511, -0.663123, 0.663123, -0.748511, 54.2694, 120.582);;animation:none"><rect fill="#ffffff" height="11" width="3" ry="2.31" rx="1.5" y="27.5" x="48.5" opacity="0.692308" style="fill:rgb(255, 255, 255);opacity:0.692308;;animation:none"></rect></g>
<g transform="matrix(-0.35460481042410763,-0.9350162717429481,0.9350162717429481,-0.35460481042410763,20.979426934057976,114.4810541083528)" style="transform:matrix(-0.354605, -0.935016, 0.935016, -0.354605, 20.9794, 114.481);;animation:none"><rect fill="#ffffff" height="11" width="3" ry="2.31" rx="1.5" y="27.5" x="48.5" opacity="0.769231" style="fill:rgb(255, 255, 255);opacity:0.769231;;animation:none"></rect></g>
<g transform="matrix(0.12053647689042488,-0.9927088987910021,0.9927088987910021,0.12053647689042488,-5.662268784071351,93.60862109502887)" style="transform:matrix(0.120536, -0.992709, 0.992709, 0.120536, -5.66227, 93.6086);;animation:none"><rect fill="#ffffff" height="11" width="3" ry="2.31" rx="1.5" y="27.5" x="48.5" opacity="0.846154" style="fill:rgb(255, 255, 255);opacity:0.846154;;animation:none"></rect></g>
<g transform="matrix(0.568064780450211,-0.822983842619072,0.822983842619072,0.568064780450211,-19.552431153464155,62.74595310844305)" style="transform:matrix(0.568065, -0.822984, 0.822984, 0.568065, -19.5524, 62.746);;animation:none"><rect fill="#ffffff" height="11" width="3" ry="2.31" rx="1.5" y="27.5" x="48.5" opacity="0.923077" style="fill:rgb(255, 255, 255);opacity:0.923077;;animation:none"></rect></g>
<g transform="matrix(0.8854559114101674,-0.46472338971563476,0.46472338971563476,0.8854559114101674,-17.50896505629011,28.963373915273365)" style="transform:matrix(0.885456, -0.464723, 0.464723, 0.885456, -17.509, 28.9634);;animation:none"><rect fill="#ffffff" height="11" width="3" ry="2.31" rx="1.5" y="27.5" x="48.5" opacity="1" style="fill:rgb(255, 255, 255);;animation:none"></rect></g>
<g></g></g><!-- [ldio] generated by https://loading.io --></svg>