<svg width="221" height="39" viewBox="0 0 221 39" fill="none" xmlns="http://www.w3.org/2000/svg">
<g filter="url(#filter0_d_105_691)">
<path d="M10.1375 6.925C10.3875 6.875 10.6708 6.84167 10.9875 6.825C11.3125 6.80833 11.5833 6.8 11.8 6.8C12.0417 6.8 12.3125 6.80833 12.6125 6.825C12.9208 6.84167 13.2125 6.875 13.4875 6.925V24C13.2125 24.05 12.9208 24.0833 12.6125 24.1C12.3125 24.1167 12.0417 24.125 11.8 24.125C11.5833 24.125 11.3125 24.1167 10.9875 24.1C10.6708 24.0833 10.3875 24.05 10.1375 24V6.925ZM17.6922 6.975C17.9589 6.91667 18.2964 6.875 18.7047 6.85C19.1214 6.81667 19.4464 6.8 19.6797 6.8C19.913 6.8 20.213 6.80833 20.5797 6.825C20.9464 6.84167 21.3047 6.875 21.6547 6.925L20.7922 10.775L20.5547 10.8375C20.6047 11.4875 20.6464 12.2167 20.6797 13.025C20.7214 13.8333 20.7547 14.6458 20.7797 15.4625C20.8047 16.2708 20.8172 17.0042 20.8172 17.6625V24C20.5422 24.05 20.2714 24.0833 20.0047 24.1C19.738 24.1167 19.5005 24.125 19.2922 24.125C19.0839 24.125 18.8297 24.1167 18.5297 24.1C18.238 24.0833 17.9589 24.05 17.6922 24V6.975ZM22.1422 14.3125C21.8422 13.6792 21.5672 13.0625 21.3172 12.4625C21.0672 11.8625 20.8422 11.3083 20.6422 10.8L19.0797 8.975L21.6547 6.925L26.1922 16.6C26.5089 17.2917 26.8047 17.9625 27.0797 18.6125C27.3547 19.2542 27.5964 19.8208 27.8047 20.3125L29.4922 22.1125L26.7547 24L22.1422 14.3125ZM30.7422 6.9375V23.95C30.4755 24.0083 30.1339 24.05 29.7172 24.075C29.3089 24.1083 28.9755 24.125 28.7172 24.125C28.4672 24.125 28.1672 24.1167 27.8172 24.1C27.4672 24.0833 27.113 24.05 26.7547 24L27.6422 20.3375L27.9047 20.275C27.8464 19.55 27.7964 18.7667 27.7547 17.925C27.713 17.0833 27.6839 16.2667 27.6672 15.475C27.6505 14.6833 27.6422 14 27.6422 13.425V8.8375C27.6422 8.09583 27.7839 7.57083 28.0672 7.2625C28.3589 6.94583 28.8339 6.7875 29.4922 6.7875H30.5797L30.7422 6.9375ZM33.1541 9.725C33.1041 9.475 33.0708 9.22917 33.0541 8.9875C33.0374 8.74583 33.0291 8.52917 33.0291 8.3375C33.0291 8.1375 33.0374 7.91667 33.0541 7.675C33.0708 7.425 33.1041 7.175 33.1541 6.925H45.1041C45.1624 7.10833 45.2041 7.31667 45.2291 7.55C45.2624 7.78333 45.2791 8.00833 45.2791 8.225C45.2791 8.775 45.1333 9.1625 44.8416 9.3875C44.5499 9.6125 44.0958 9.725 43.4791 9.725H42.3041C42.1374 9.725 41.8916 9.72083 41.5666 9.7125C41.2416 9.70417 40.9874 9.7 40.8041 9.7H37.4416C37.2666 9.7 37.0124 9.70417 36.6791 9.7125C36.3541 9.72083 36.1041 9.725 35.9291 9.725H33.1541ZM37.4416 11.55C37.4416 11.2083 37.4416 10.9042 37.4416 10.6375C37.4499 10.3625 37.4541 10.05 37.4541 9.7V8.325H40.7791V9.7C40.7791 10.05 40.7833 10.3625 40.7916 10.6375C40.7999 10.9042 40.8041 11.2083 40.8041 11.55V24C40.5208 24.05 40.2291 24.0833 39.9291 24.1C39.6291 24.1167 39.3624 24.125 39.1291 24.125C38.8791 24.125 38.6041 24.1167 38.3041 24.1C38.0041 24.0833 37.7166 24.05 37.4416 24V11.55ZM47.416 7.0875L47.5785 6.925H50.7035V9.675C50.7035 10.025 50.7077 10.325 50.716 10.575C50.7243 10.825 50.7285 11.1208 50.7285 11.4625V19.725C50.7285 20 50.7243 20.2542 50.716 20.4875C50.7077 20.7125 50.7035 20.9708 50.7035 21.2625V24.05H49.341C48.741 24.05 48.2702 23.8708 47.9285 23.5125C47.5868 23.1542 47.416 22.6667 47.416 22.05V7.0875ZM56.591 14.025C56.6577 14.2333 56.7035 14.4708 56.7285 14.7375C56.7618 14.9958 56.7785 15.2167 56.7785 15.4C56.7785 15.5917 56.7618 15.8167 56.7285 16.075C56.7035 16.325 56.6577 16.5583 56.591 16.775H52.3535C52.1535 16.775 51.8827 16.775 51.541 16.775C51.1993 16.7667 50.8493 16.7625 50.491 16.7625C50.1327 16.7542 49.8243 16.7458 49.566 16.7375V14.0625C49.8243 14.0542 50.1327 14.05 50.491 14.05C50.8493 14.0417 51.1993 14.0375 51.541 14.0375C51.8827 14.0292 52.1535 14.025 52.3535 14.025H56.591ZM58.016 6.925C58.066 7.175 58.0952 7.4125 58.1035 7.6375C58.1118 7.85417 58.116 8.05833 58.116 8.25C58.116 8.44167 58.0952 8.675 58.0535 8.95C58.0118 9.225 57.9452 9.49167 57.8535 9.75H52.3535C52.1535 9.75 51.8827 9.75 51.541 9.75C51.1993 9.74167 50.8493 9.73333 50.491 9.725C50.1327 9.71667 49.8243 9.70833 49.566 9.7V6.925H58.016ZM58.566 21.225C58.566 22.1833 58.416 22.8958 58.116 23.3625C57.8243 23.8208 57.241 24.05 56.366 24.05H49.566V21.3375C50.041 21.3125 50.4993 21.2875 50.941 21.2625C51.391 21.2375 51.8952 21.225 52.4535 21.225H58.566ZM60.4119 7.45C60.7452 7.21667 61.1077 7.0375 61.4994 6.9125C61.8911 6.77917 62.2577 6.7125 62.5994 6.7125C63.0577 6.7125 63.4452 6.80833 63.7619 7C64.0869 7.18333 64.4077 7.525 64.7244 8.025L74.3119 23.475C73.9786 23.7083 73.6161 23.8875 73.2244 24.0125C72.8411 24.1458 72.4744 24.2125 72.1244 24.2125C71.6661 24.2125 71.2702 24.1167 70.9369 23.925C70.6119 23.7333 70.2911 23.3833 69.9744 22.875L60.4119 7.45ZM70.5619 6.925C70.7286 6.88333 70.9327 6.85 71.1744 6.825C71.4161 6.8 71.6744 6.7875 71.9494 6.7875C72.2827 6.7875 72.6077 6.81667 72.9244 6.875C73.2411 6.93333 73.5036 7 73.7119 7.075L73.7994 7.2625L68.5494 15.85L67.1869 17.3625L63.2119 24C63.0452 24.0417 62.8369 24.075 62.5869 24.1C62.3369 24.125 62.0702 24.1375 61.7869 24.1375C61.4619 24.1375 61.1411 24.1083 60.8244 24.05C60.5077 23.9917 60.2327 23.9208 59.9994 23.8375L59.9119 23.6375L65.7244 14.2375L67.0869 12.725L70.5619 6.925ZM75.1674 18.6375C75.1174 18.4208 75.0799 18.1875 75.0549 17.9375C75.0382 17.6792 75.0299 17.4667 75.0299 17.3C75.0299 17.125 75.0382 16.9125 75.0549 16.6625C75.0799 16.4042 75.1174 16.1667 75.1674 15.95H81.8049C81.8632 16.1667 81.9007 16.4042 81.9174 16.6625C81.934 16.9125 81.9424 17.125 81.9424 17.3C81.9424 17.4667 81.934 17.6792 81.9174 17.9375C81.9007 18.1875 81.8632 18.4208 81.8049 18.6375H75.1674ZM85.9494 6.9375C86.3077 6.87917 86.7036 6.84167 87.1369 6.825C87.5702 6.8 87.9286 6.7875 88.2119 6.7875C88.5036 6.7875 88.8411 6.8 89.2244 6.825C89.6077 6.84167 89.9786 6.87917 90.3369 6.9375L92.2494 13.875C92.2994 14.05 92.3661 14.3208 92.4494 14.6875C92.5411 15.0542 92.6369 15.4583 92.7369 15.9C92.8369 16.3417 92.9286 16.7667 93.0119 17.175C93.1036 17.5833 93.1661 17.9083 93.1994 18.15H93.3619C93.4036 17.9083 93.4661 17.5833 93.5494 17.175C93.6411 16.7667 93.7369 16.3417 93.8369 15.9C93.9369 15.4583 94.0327 15.0542 94.1244 14.6875C94.2161 14.3208 94.2827 14.05 94.3244 13.875L96.2369 6.9375C96.6119 6.87917 96.9869 6.84167 97.3619 6.825C97.7369 6.8 98.0702 6.7875 98.3619 6.7875C98.6536 6.7875 99.0119 6.8 99.4369 6.825C99.8619 6.84167 100.258 6.87917 100.624 6.9375L101.949 23.9625C101.708 24.0208 101.429 24.0625 101.112 24.0875C100.804 24.1208 100.516 24.1375 100.249 24.1375C99.9911 24.1375 99.7411 24.1292 99.4994 24.1125C99.2577 24.0958 99.0119 24.0667 98.7619 24.025L98.2869 16.0125C98.2619 15.4875 98.2327 14.9042 98.1994 14.2625C98.1744 13.6125 98.1494 12.9667 98.1244 12.325C98.1077 11.6833 98.0952 11.1042 98.0869 10.5875H97.9369L94.9994 21.4375C94.7494 21.4792 94.4577 21.5125 94.1244 21.5375C93.7994 21.5542 93.5161 21.5625 93.2744 21.5625C93.0494 21.5625 92.7702 21.5542 92.4369 21.5375C92.1036 21.5125 91.8119 21.4792 91.5619 21.4375L88.6369 10.5875H88.4869C88.4786 11.1042 88.4619 11.6833 88.4369 12.325C88.4202 12.9667 88.3994 13.6125 88.3744 14.2625C88.3494 14.9042 88.3202 15.4875 88.2869 16.0125L87.7994 24.025C87.5577 24.0667 87.3119 24.0958 87.0619 24.1125C86.8119 24.1292 86.5619 24.1375 86.3119 24.1375C86.0452 24.1375 85.7536 24.1208 85.4369 24.0875C85.1286 24.0625 84.8577 24.0208 84.6244 23.9625L85.9494 6.9375ZM109.494 6.925C109.752 6.88333 110.069 6.85417 110.444 6.8375C110.827 6.8125 111.157 6.8 111.432 6.8C111.698 6.8 112.019 6.8125 112.394 6.8375C112.777 6.85417 113.094 6.8875 113.344 6.9375L118.832 23.7875C118.598 23.9208 118.302 24.0208 117.944 24.0875C117.586 24.1625 117.24 24.2 116.907 24.2C116.373 24.2 115.957 24.0792 115.657 23.8375C115.365 23.5875 115.115 23.1083 114.907 22.4L112.644 14.925C112.436 14.2083 112.207 13.4083 111.957 12.525C111.715 11.6417 111.498 10.8292 111.307 10.0875H111.157C111.073 10.5042 110.965 10.9667 110.832 11.475C110.707 11.975 110.573 12.475 110.432 12.975C110.298 13.4667 110.177 13.9042 110.069 14.2875L107.082 24.025C106.873 24.075 106.648 24.1083 106.407 24.125C106.165 24.1417 105.911 24.15 105.644 24.15C105.377 24.15 105.09 24.1292 104.782 24.0875C104.473 24.0458 104.219 23.9917 104.019 23.925L103.907 23.75L109.494 6.925ZM109.482 20.1625C109.382 20.1625 109.236 20.1625 109.044 20.1625C108.852 20.1542 108.657 20.15 108.457 20.15C108.265 20.1417 108.119 20.1375 108.019 20.1375H106.332L107.357 17.4875H108.844C108.944 17.4875 109.082 17.4875 109.257 17.4875C109.44 17.4792 109.619 17.475 109.794 17.475C109.977 17.4667 110.115 17.4625 110.207 17.4625H112.357C112.465 17.4625 112.607 17.4667 112.782 17.475C112.957 17.475 113.136 17.4792 113.319 17.4875C113.502 17.4875 113.644 17.4875 113.744 17.4875H115.282L116.144 20.1375H114.457C114.357 20.1375 114.207 20.1417 114.007 20.15C113.815 20.15 113.619 20.1542 113.419 20.1625C113.227 20.1625 113.082 20.1625 112.982 20.1625H109.482ZM133.031 12.0875C133.031 12.8708 132.881 13.5708 132.581 14.1875C132.289 14.8042 131.906 15.3208 131.431 15.7375C130.956 16.1542 130.452 16.4583 129.919 16.65C130.36 16.8083 130.731 17.0875 131.031 17.4875C131.339 17.8792 131.585 18.3375 131.769 18.8625L132.694 21.3625C132.852 21.8042 133.023 22.1708 133.206 22.4625C133.398 22.7542 133.619 23 133.869 23.2C133.652 23.4917 133.331 23.7333 132.906 23.925C132.489 24.1083 132.06 24.2 131.619 24.2C131.01 24.2 130.564 24.0333 130.281 23.7C129.998 23.3667 129.739 22.8708 129.506 22.2125L128.444 19.2375C128.269 18.7375 128.019 18.3167 127.694 17.975C127.369 17.625 126.848 17.45 126.131 17.45H123.244V14.9C123.585 14.8833 123.994 14.8667 124.469 14.85C124.952 14.825 125.419 14.8083 125.869 14.8C126.319 14.7917 126.664 14.7875 126.906 14.7875C127.631 14.7875 128.185 14.6583 128.569 14.4C128.952 14.1333 129.219 13.7958 129.369 13.3875C129.519 12.9708 129.594 12.5375 129.594 12.0875C129.594 11.6125 129.519 11.1708 129.369 10.7625C129.219 10.3542 128.952 10.0208 128.569 9.7625C128.185 9.50417 127.631 9.375 126.906 9.375C126.606 9.375 126.248 9.375 125.831 9.375C125.414 9.36667 125.006 9.35833 124.606 9.35V24C124.339 24.05 124.052 24.0833 123.744 24.1C123.444 24.1167 123.173 24.125 122.931 24.125C122.723 24.125 122.46 24.1167 122.144 24.1C121.827 24.0833 121.539 24.05 121.281 24V7.0625L121.456 6.8875C122.456 6.87083 123.427 6.85417 124.369 6.8375C125.319 6.8125 126.244 6.8 127.144 6.8C128.302 6.8 129.323 6.99167 130.206 7.375C131.089 7.75833 131.781 8.34167 132.281 9.125C132.781 9.90833 133.031 10.8958 133.031 12.0875ZM136.491 6.925C136.749 6.875 137.037 6.84167 137.354 6.825C137.679 6.80833 137.949 6.8 138.166 6.8C138.399 6.8 138.67 6.80833 138.979 6.825C139.295 6.84167 139.587 6.875 139.854 6.925V24C139.587 24.05 139.295 24.0833 138.979 24.1C138.67 24.1167 138.399 24.125 138.166 24.125C137.949 24.125 137.679 24.1167 137.354 24.1C137.037 24.0833 136.749 24.05 136.491 24V6.925ZM149.354 23.15C149.137 23.4833 148.816 23.7417 148.391 23.925C147.974 24.1 147.549 24.1875 147.116 24.1875C146.483 24.1875 146.029 24.025 145.754 23.7C145.479 23.375 145.233 22.8833 145.016 22.225L143.879 18.95C143.579 18.0833 143.229 17.475 142.829 17.125C142.429 16.7667 141.895 16.5875 141.229 16.5875C140.912 16.5875 140.491 16.6042 139.966 16.6375C139.441 16.6625 138.833 16.7 138.141 16.75V14.6375H142.779C143.679 14.6375 144.391 14.7667 144.916 15.025C145.449 15.2833 145.87 15.6417 146.179 16.1C146.487 16.5583 146.745 17.1 146.954 17.725L148.141 21.0625C148.291 21.4792 148.424 21.8167 148.541 22.075C148.658 22.325 148.779 22.5292 148.904 22.6875C149.037 22.8458 149.187 23 149.354 23.15ZM144.666 8.05C144.891 7.63333 145.124 7.325 145.366 7.125C145.608 6.91667 145.987 6.8125 146.504 6.8125C146.787 6.8125 147.104 6.82083 147.454 6.8375C147.812 6.85417 148.154 6.87917 148.479 6.9125L148.679 7.1625L145.291 13.225C144.866 14 144.329 14.6125 143.679 15.0625C143.029 15.5042 142.179 15.725 141.129 15.725H138.141V13.825C138.574 13.8083 139.029 13.7958 139.504 13.7875C139.979 13.7792 140.429 13.7708 140.854 13.7625C141.137 13.7625 141.341 13.7083 141.466 13.6C141.591 13.4833 141.737 13.2792 141.904 12.9875L144.666 8.05ZM151.713 7.0875L151.875 6.925H155V9.675C155 10.025 155.005 10.325 155.013 10.575C155.021 10.825 155.025 11.1208 155.025 11.4625V19.725C155.025 20 155.021 20.2542 155.013 20.4875C155.005 20.7125 155 20.9708 155 21.2625V24.05H153.638C153.038 24.05 152.567 23.8708 152.225 23.5125C151.884 23.1542 151.713 22.6667 151.713 22.05V7.0875ZM160.888 14.025C160.955 14.2333 161 14.4708 161.025 14.7375C161.059 14.9958 161.075 15.2167 161.075 15.4C161.075 15.5917 161.059 15.8167 161.025 16.075C161 16.325 160.955 16.5583 160.888 16.775H156.65C156.45 16.775 156.18 16.775 155.838 16.775C155.496 16.7667 155.146 16.7625 154.788 16.7625C154.43 16.7542 154.121 16.7458 153.863 16.7375V14.0625C154.121 14.0542 154.43 14.05 154.788 14.05C155.146 14.0417 155.496 14.0375 155.838 14.0375C156.18 14.0292 156.45 14.025 156.65 14.025H160.888ZM162.313 6.925C162.363 7.175 162.392 7.4125 162.4 7.6375C162.409 7.85417 162.413 8.05833 162.413 8.25C162.413 8.44167 162.392 8.675 162.35 8.95C162.309 9.225 162.242 9.49167 162.15 9.75H156.65C156.45 9.75 156.18 9.75 155.838 9.75C155.496 9.74167 155.146 9.73333 154.788 9.725C154.43 9.71667 154.121 9.70833 153.863 9.7V6.925H162.313ZM162.863 21.225C162.863 22.1833 162.713 22.8958 162.413 23.3625C162.121 23.8208 161.538 24.05 160.663 24.05H153.863V21.3375C154.338 21.3125 154.796 21.2875 155.238 21.2625C155.688 21.2375 156.192 21.225 156.75 21.225H162.863ZM164.209 9.725C164.159 9.475 164.125 9.22917 164.109 8.9875C164.092 8.74583 164.084 8.52917 164.084 8.3375C164.084 8.1375 164.092 7.91667 164.109 7.675C164.125 7.425 164.159 7.175 164.209 6.925H176.159C176.217 7.10833 176.259 7.31667 176.284 7.55C176.317 7.78333 176.334 8.00833 176.334 8.225C176.334 8.775 176.188 9.1625 175.896 9.3875C175.605 9.6125 175.15 9.725 174.534 9.725H173.359C173.192 9.725 172.946 9.72083 172.621 9.7125C172.296 9.70417 172.042 9.7 171.859 9.7H168.496C168.321 9.7 168.067 9.70417 167.734 9.7125C167.409 9.72083 167.159 9.725 166.984 9.725H164.209ZM168.496 11.55C168.496 11.2083 168.496 10.9042 168.496 10.6375C168.505 10.3625 168.509 10.05 168.509 9.7V8.325H171.834V9.7C171.834 10.05 171.838 10.3625 171.846 10.6375C171.855 10.9042 171.859 11.2083 171.859 11.55V24C171.575 24.05 171.284 24.0833 170.984 24.1C170.684 24.1167 170.417 24.125 170.184 24.125C169.934 24.125 169.659 24.1167 169.359 24.1C169.059 24.0833 168.771 24.05 168.496 24V11.55ZM175.831 22.4625C175.831 22.3125 175.852 22.0917 175.894 21.8C175.935 21.5083 176.002 21.2667 176.094 21.075C176.302 20.9583 176.569 20.8625 176.894 20.7875C177.227 20.7125 177.548 20.675 177.856 20.675C178.14 20.675 178.448 20.7125 178.781 20.7875C179.123 20.8625 179.398 20.9583 179.606 21.075C179.698 21.2667 179.765 21.5083 179.806 21.8C179.848 22.0917 179.869 22.3125 179.869 22.4625C179.869 22.6125 179.848 22.8333 179.806 23.125C179.765 23.4167 179.698 23.6542 179.606 23.8375C179.406 23.9708 179.135 24.0708 178.794 24.1375C178.452 24.2042 178.14 24.2375 177.856 24.2375C177.548 24.2375 177.227 24.2042 176.894 24.1375C176.569 24.0708 176.302 23.9708 176.094 23.8375C176.002 23.6542 175.935 23.4167 175.894 23.125C175.852 22.8333 175.831 22.6125 175.831 22.4625ZM195.789 17.85C195.789 19.2417 195.527 20.4208 195.002 21.3875C194.477 22.3542 193.727 23.0917 192.752 23.6C191.777 24.1 190.606 24.35 189.239 24.35C187.872 24.35 186.702 24.1 185.727 23.6C184.752 23.0917 184.002 22.3542 183.477 21.3875C182.952 20.4208 182.689 19.2417 182.689 17.85V6.95L182.864 6.7875H184.114C184.764 6.7875 185.247 6.95833 185.564 7.3C185.889 7.63333 186.052 8.17083 186.052 8.9125V17.8625C186.052 19.1125 186.306 20.0583 186.814 20.7C187.331 21.3417 188.139 21.6625 189.239 21.6625C190.339 21.6625 191.143 21.3417 191.652 20.7C192.168 20.0583 192.427 19.1125 192.427 17.8625V6.925C192.702 6.875 192.985 6.84167 193.277 6.825C193.577 6.80833 193.839 6.8 194.064 6.8C194.289 6.8 194.568 6.80833 194.902 6.825C195.235 6.84167 195.531 6.875 195.789 6.925V17.85ZM204.707 12.1125C204.957 11.7458 205.269 11.3292 205.644 10.8625C206.019 10.3958 206.369 9.9625 206.694 9.5625L206.619 9.4875C206.369 9.52083 206.069 9.55417 205.719 9.5875C205.377 9.6125 205.019 9.63333 204.644 9.65C204.269 9.65833 203.915 9.66667 203.582 9.675C203.248 9.68333 202.969 9.6875 202.744 9.6875H198.957C198.907 9.4875 198.869 9.29583 198.844 9.1125C198.827 8.92917 198.819 8.74583 198.819 8.5625C198.819 8.27083 198.84 7.99583 198.882 7.7375C198.923 7.47917 198.982 7.20833 199.057 6.925H209.757C209.907 7.44167 210.011 7.83333 210.069 8.1C210.136 8.36667 210.177 8.56667 210.194 8.7C210.219 8.825 210.232 8.93333 210.232 9.025C210.232 9.21667 210.202 9.41667 210.144 9.625C210.086 9.83333 209.982 10.0458 209.832 10.2625L203.919 18.75C203.669 19.1167 203.361 19.5333 202.994 20C202.636 20.4583 202.294 20.8792 201.969 21.2625L202.044 21.3375C202.577 21.2875 203.161 21.25 203.794 21.225C204.427 21.1917 204.973 21.175 205.432 21.175H207.407C208.04 21.175 208.594 21.125 209.069 21.025C209.552 20.925 209.961 20.7958 210.294 20.6375C210.352 20.8542 210.407 21.1 210.457 21.375C210.507 21.65 210.532 21.9208 210.532 22.1875C210.532 22.7958 210.327 23.25 209.919 23.55C209.519 23.85 208.973 24 208.282 24H198.757C198.64 23.5083 198.552 23.1333 198.494 22.875C198.444 22.6083 198.411 22.4125 198.394 22.2875C198.377 22.1542 198.369 22.0417 198.369 21.95C198.369 21.7333 198.402 21.5083 198.469 21.275C198.536 21.0417 198.64 20.825 198.782 20.625L204.707 12.1125Z" fill="white"/>
</g>
<defs>
<filter id="filter0_d_105_691" x="0.137512" y="0.712494" width="220.394" height="37.6375" filterUnits="userSpaceOnUse" color-interpolation-filters="sRGB">
<feFlood flood-opacity="0" result="BackgroundImageFix"/>
<feColorMatrix in="SourceAlpha" type="matrix" values="0 0 0 0 0 0 0 0 0 0 0 0 0 0 0 0 0 0 127 0" result="hardAlpha"/>
<feOffset dy="4"/>
<feGaussianBlur stdDeviation="5"/>
<feColorMatrix type="matrix" values="0 0 0 0 0 0 0 0 0 0 0 0 0 0 0 0 0 0 0.25 0"/>
<feBlend mode="normal" in2="BackgroundImageFix" result="effect1_dropShadow_105_691"/>
<feBlend mode="normal" in="SourceGraphic" in2="effect1_dropShadow_105_691" result="shape"/>
</filter>
</defs>
</svg>
